# xmcd CD database file
#
# Track frame offsets:
#	150
#	14618
#	28608
#	39604
#	52154
#	62298
#	76734
#	90803
#	104458
#	113313
#	123249
#	133018
#	146043
#	161255
#	175122
#	185711
#	193893
#	206213
#	218177
#	232826
#
# Disc length: 3249 seconds
#
# Revision: 1
# Processed by: cddbd v1.5.2PL0 Copyright (c) Steve Scherf et al.
# Submitted via: CDex 1.51
#
DISCID=0d0caf14
DTITLE=Elly Vilhjálms - Allt mitt líf 2
DYEAR=2004
DGENRE=Pop
TTITLE0=Ramóna
TTITLE1=Minningar
TTITLE2=Langt, langt út í heim
TTITLE3=Ljúfa líf
TTITLE4=Hugsaðu heim
TTITLE5=Heilsaðu frá mér
TTITLE6=Það er svo ótalmargt
TTITLE7=Hvar ert þú?
TTITLE8=Ég vildi að ung ég væri rós
TTITLE9=Amor og asninn
TTITLE10=Þín hvíta mynd
TTITLE11=Draumur fangans
TTITLE12=Litla stúlkan við hliðið
TTITLE13=Blikandi haf
TTITLE14=Heimþrá
TTITLE15=Hér sátum við bæði
TTITLE16=Við fljúgum
TTITLE17=Mamma mín
TTITLE18=Lítið blóm
TTITLE19=Almost like being in love
EXTD=YEAR: 2004
EXTT0=
EXTT1=
EXTT2=
EXTT3=
EXTT4=
EXTT5=
EXTT6=
EXTT7=
EXTT8=
EXTT9=
EXTT10=
EXTT11=
EXTT12=
EXTT13=
EXTT14=
EXTT15=
EXTT16=
EXTT17=
EXTT18=
EXTT19=
PLAYORDER=
